inDegrees=no
num_controls=7
num_derivatives=13
num_iterations=186
num_multipliers=7
num_parameters=0
num_slacks=7
num_states=26
objective=4.912925
objective_accelerations=0.611796
objective_balance=0.070604
objective_effort=0.460782
objective_height=3.706957
objective_ligament=0.062786
solver_duration=2802.821512
status=Solve_Succeeded
success=true
DataType=double
version=3
OpenSimVersion=4.4-2022-07-23-0e9fedc
endheader
time	/jointset/ground_pelvis/pelvis_tilt/value	/jointset/ground_pelvis/pelvis_tx/value	/jointset/ground_pelvis/pelvis_ty/value	/jointset/hip_l/hip_flexion_l/value	/jointset/hip_l/hip_adduction_l/value	/jointset/hip_l/hip_rotation_l/value	/jointset/back/lumbar_extension/value	/jointset/patellofemoral_l/patellar_flexion_l/value	/jointset/knee_l/knee_flexion_l/value	/jointset/knee_l/knee_adduction_l/value	/jointset/knee_l/knee_rotation_l/value	/jointset/ankle_l/ankle_angle_l/value	/jointset/subtalar_l/subtalar_angle_l/value	/jointset/ground_pelvis/pelvis_tilt/speed	/jointset/ground_pelvis/pelvis_tx/speed	/jointset/ground_pelvis/pelvis_ty/speed	/jointset/hip_l/hip_flexion_l/speed	/jointset/hip_l/hip_adduction_l/speed	/jointset/hip_l/hip_rotation_l/speed	/jointset/back/lumbar_extension/speed	/jointset/patellofemoral_l/patellar_flexion_l/speed	/jointset/knee_l/knee_flexion_l/speed	/jointset/knee_l/knee_adduction_l/speed	/jointset/knee_l/knee_rotation_l/speed	/jointset/ankle_l/ankle_angle_l/speed	/jointset/subtalar_l/subtalar_angle_l/speed	/forceset/tau_hip_flexion_l	/forceset/tau_hip_adduction_l	/forceset/tau_hip_rotation_l	/forceset/tau_knee_flexion_l	/forceset/tau_ankle_angle_l	/forceset/tau_subtalar_angle_l	/forceset/tau_lumbar_extension	lambda_cid13_p0	lambda_cid13_p1	lambda_cid13_p2	lambda_cid13_p3	lambda_cid13_p4	lambda_cid13_p5	lambda_cid14_p0	/jointset/ground_pelvis/pelvis_tilt/accel	/jointset/ground_pelvis/pelvis_tx/accel	/jointset/ground_pelvis/pelvis_ty/accel	/jointset/hip_l/hip_flexion_l/accel	/jointset/hip_l/hip_adduction_l/accel	/jointset/hip_l/hip_rotation_l/accel	/jointset/back/lumbar_extension/accel	/jointset/patellofemoral_l/patellar_flexion_l/accel	/jointset/knee_l/knee_flexion_l/accel	/jointset/knee_l/knee_adduction_l/accel	/jointset/knee_l/knee_rotation_l/accel	/jointset/ankle_l/ankle_angle_l/accel	/jointset/subtalar_l/subtalar_angle_l/accel	gamma_cid13_p0	gamma_cid13_p1	gamma_cid13_p2	gamma_cid13_p3	gamma_cid13_p4	gamma_cid13_p5	gamma_cid14_p0
1.5	-0.4417754024388067	-0.07487546153296819	0.7371097708816917	1.356011836703533	-0.3082780737481167	0.002459310052554496	-0.3555617377793743	0.8270362547748471	0.8270362547748474	-0.1704776176146606	0.1745273506453855	0.08895208334140912	-0.03873591124558711	0.6827662786323377	0.2373106746586651	0.5950277688363306	-2.551906248911723	-0.01173605509029875	-0.7447515075945714	0.5497146358260857	-2.102990779466996	-2.102990779466996	0.01567572576358013	0.0001434955197876473	-0.3564384873687325	-0.05911643599140675	-0.2521123183997394	0.01124264737543757	-0.02371170236475397	-0.2303053113325266	0.1378431745445309	0.04246829346778291	0.2293240057060794	5.687987878788149	-21.77558233941409	5.737109364068986	-7.607576203859552	-609.4488224226584	-59.28556184463548	-20.02544001816906	0.8238524263029376	0.8022680319902176	-0.3803189636719937	-1.784456442284145	0.7727473214721449	-0.3612051860135414	1.967010109407516	-1.412034854779183	-1.412034854779183	0.002874292532590239	-0.005073323737324702	-0.451572547013263	0.7543883118415821	3.927497628968515e-07	6.605368949440065e-07	-2.145502242964553e-06	-1.907745160090155e-07	4.332396737151961e-07	-2.360675505047056e-07	4.109541496393578e-07
1.51	-0.4349068170632862	-0.0724623632228438	0.7430398462525086	1.330405875014016	-0.3083580737816515	-0.005003745722534887	-0.3499675587834433	0.8059381555202517	0.8059381555202519	-0.1703246067576093	0.1745287763571139	0.08536541578758032	-0.03929083962951914	0.6908536037607519	0.2452885304679999	0.5908640409482496	-2.568941240418788	-0.004248370228433284	-0.7477575822149082	0.5690606663137527	-2.116332500914738	-2.116332500914738	0.01490486647480501	0.0001345313018807255	-0.3608133019160063	-0.05185314901678827	-0.2440707843732613	0.01113519152231611	-0.0236887096322233	-0.2279408021503204	0.13802461937019	0.04231608701037438	0.2230015118339828	6.042529076535192	-21.87782375604041	5.874791261564518	-7.701639951186717	-604.1402921715439	-59.55541091246684	-21.32734127676659	0.7866445249722629	0.79243399681738	-0.4527901137276126	-1.611230557060677	0.739349027813504	-0.2545995028837681	1.909324961489711	-1.250845637309127	-1.250845637309138	-0.1202537262630657	0.0006170494372300297	-0.4181806551070558	0.7148591986273888	4.267984403655564e-07	7.45912304399643e-07	-2.266373172433557e-06	-2.028820602758557e-07	4.748082384493117e-07	-1.860297429722092e-07	4.381372725229315e-07
1.52	-0.4279602640427093	-0.06997010842634362	0.7489246062619744	1.304639921398999	-0.3083626829747139	-0.01249372042439564	-0.3441817343940268	0.7847155180816713	0.7847155180816714	-0.1701799420307818	0.1745299974307141	0.08173745113897427	-0.03977262308203391	0.6983598076436308	0.2531419719338251	0.5859646965661099	-2.583904634011576	0.003342113004161558	-0.7501352929488461	0.5880437145231563	-2.127898416263979	-2.127898416263979	0.01400649971881017	0.0001025678941448242	-0.3646979063241844	-0.04448744970795349	-0.2360292503467833	0.01102773566919465	-0.02366571689969262	-0.2255762929681142	0.1382060641958491	0.04216388055296586	0.2166790179618862	6.39137508127498	-21.9819533331598	6.016071448687654	-7.804992050342814	-598.9413697961978	-59.91433422922184	-22.62498119152053	0.707628177195913	0.7773851632882864	-0.527442262483739	-1.370136859428806	0.7933069956180195	-0.2355324087337518	1.894413653754768	-1.056873635079125	-1.056873635079114	-0.02262720091131652	-0.009673161704442065	-0.3535305191940926	0.7748707786848402	4.608724273357164e-07	8.352021616877599e-07	-2.38199278427078e-06	-2.150855978784756e-07	5.192152602947305e-07	-1.298079603487452e-07	4.647029576799031e-07
1.53	-0.4209415916754372	-0.06740002050380327	0.7547567621256281	1.278734644406577	-0.3082911204788053	-0.02000437852213258	-0.3382081380495183	0.7633860398664616	0.7633860398664617	-0.1700451799524835	0.1745308385908609	0.07807303632877154	-0.04018050596232544	0.7052671384092283	0.2608465022220596	0.5803477719826275	-2.596787884822205	0.01097985375581294	-0.7518979022913722	0.6065980259049145	-2.137687228947753	-2.137687228947753	0.01293194006038792	6.069540911625097e-05	-0.3680973865534393	-0.03707869161269878	-0.2278372856892929	0.01068144523606969	-0.02360757199996083	-0.2233432265181584	0.1384935626454144	0.04182123743566792	0.2101871734951081	6.76608168065597	-22.00611712498117	6.142559989411514	-7.861896254131753	-593.7647033178733	-60.17372044016936	-23.91622301826723	0.666214272847508	0.7625736129757423	-0.5965047783484924	-1.192915444558218	0.7506654959339666	-0.1314102608881111	1.824310609344948	-0.8934863071836824	-0.8934863071836817	-0.1519078882407654	-0.001650593880337043	-0.3200035394209174	0.7255855765479727	4.949733056511725e-07	9.286511197978869e-07	-2.492032871124236e-06	-2.273911284003613e-07	5.666381428209092e-07	-6.701570419112812e-08	4.906126152523596e-07
1.54	-0.4138570602511879	-0.06475376994810361	0.7605292112990334	1.252711435655514	-0.3081428489991811	-0.02752961972606999	-0.3320513244454007	0.7419679532799827	0.7419679532799829	-0.1699215709787561	0.1745312197657618	0.0743772573633503	-0.04051395981134398	0.7115316190390596	0.2683744985656829	0.5740233585164252	-2.607490985739966	0.01868390974727515	-0.7530519141889418	0.6246871664450165	-2.145620090517813	-2.145620090517813	0.01177587880464304	1.057084495770483e-05	-0.3709707373678836	-0.02960164345335656	-0.2196453210318024	0.01033515480294472	-0.02354942710022905	-0.2211101600682027	0.1387810610949796	0.04147859431836996	0.2036953290283301	7.137112034542434	-22.03317577274365	6.273553531846743	-7.939054798082229	-588.6724073872697	-60.52792751561534	-25.19957902308778	0.5790581500426766	0.7420783743660727	-0.6689400390277269	-0.9341068808552163	0.8065700435801871	-0.1138129197425312	1.801379485423532	-0.6856834123362833	-0.6856834123362836	-0.03892752037583971	-0.01132357753034591	-0.2483046362319973	0.7885287915023416	5.283139849795185e-07	1.021611029387694e-06	-2.596873272536679e-06	-2.398770197914036e-07	6.162278742793012e-07	-4.562931343709096e-10	5.153660559160077e-07
